<?xml version="1.0" encoding="iso-8859-1"?>
<!-- Generator: Adobe Illustrator 19.0.0, SVG Export Plug-In . SVG Version: 6.00 Build 0)  -->
<svg version="1.1" id="Layer_1" xmlns="http://www.w3.org/2000/svg" xmlns:xlink="http://www.w3.org/1999/xlink" x="0px" y="0px"
	 viewBox="0 0 511.755 511.755" style="enable-background:new 0 0 511.755 511.755;" xml:space="preserve">
<g>
	<g>
		<path d="M211.429,291.589l-9.749-17.707c-2.837-5.184-9.387-7.019-14.485-4.203c-5.163,2.837-7.04,9.323-4.181,14.485
			l9.749,17.707c1.941,3.541,5.589,5.525,9.344,5.525c1.749,0,3.52-0.427,5.141-1.323
			C212.411,303.237,214.288,296.752,211.429,291.589z"/>
	</g>
</g>
<g>
	<g>
		<path d="M459.088,218.949l-19.136-11.157c-5.099-2.944-11.627-1.259-14.592,3.84c-2.965,5.099-1.237,11.627,3.84,14.592
			l19.136,11.157c1.685,0.981,3.541,1.451,5.376,1.451c3.669,0,7.232-1.899,9.216-5.291
			C465.893,228.443,464.165,221.915,459.088,218.949z"/>
	</g>
</g>
<g>
	<g>
		<path d="M153.019,185.413l-3.797-6.912v-7.957c0-5.888-4.779-10.667-10.667-10.667s-10.667,4.779-10.667,10.667v4.544
			l-17.792,10.368c-5.099,2.965-6.827,9.493-3.84,14.592c1.984,3.392,5.547,5.291,9.216,5.291c1.835,0,3.691-0.469,5.376-1.451
			l13.696-7.979c1.963,3.371,5.483,5.312,9.152,5.312c1.749,0,3.52-0.427,5.141-1.323C154,197.061,155.877,190.576,153.019,185.413z
			"/>
	</g>
</g>
<g>
	<g>
		<path d="M86.416,211.632c-2.987-5.099-9.557-6.784-14.592-3.84l-19.136,11.157c-5.099,2.965-6.827,9.493-3.84,14.592
			c1.984,3.392,5.547,5.291,9.216,5.291c1.835,0,3.669-0.469,5.376-1.451l19.136-11.157
			C87.675,223.259,89.403,216.731,86.416,211.632z"/>
	</g>
</g>
<g>
	<g>
		<path d="M373.221,76.784c-5.888,0-10.667,4.779-10.667,10.667v22.464c0,5.888,4.779,10.667,10.667,10.667
			c5.888,0,10.667-4.779,10.667-10.667V87.451C383.888,81.563,379.109,76.784,373.221,76.784z"/>
	</g>
</g>
<g>
	<g>
		<path d="M401.68,185.456l-17.792-10.368v-20.267c0-5.888-4.779-10.667-10.667-10.667c-5.888,0-10.667,4.779-10.667,10.667v22.464
			c0,3.435,1.728,6.357,4.267,8.299c0.576,2.88,2.24,5.547,4.971,7.147l19.136,11.157c1.685,0.981,3.541,1.451,5.376,1.451
			c3.669,0,7.232-1.899,9.216-5.291C408.485,194.949,406.757,188.421,401.68,185.456z"/>
	</g>
</g>
<g>
	<g>
		<path d="M210.299,427.696c-3.456-4.779-10.133-5.781-14.891-2.347l-18.176,13.205c-4.757,3.456-5.803,10.133-2.347,14.891
			c2.069,2.88,5.333,4.395,8.619,4.395c2.197,0,4.395-0.661,6.272-2.048l18.176-13.205
			C212.709,439.131,213.755,432.453,210.299,427.696z"/>
	</g>
</g>
<g>
	<g>
		<path d="M138.555,83.077c-5.888,0-10.667,4.779-10.667,10.667v25.6c0,5.888,4.779,10.667,10.667,10.667
			s10.667-4.779,10.667-10.667v-25.6C149.221,87.856,144.443,83.077,138.555,83.077z"/>
	</g>
</g>
<g>
	<g>
		<path d="M270.779,392.197l-6.72-4.885l-3.989-7.253c-2.837-5.163-9.387-7.019-14.485-4.203c-5.163,2.837-7.04,9.323-4.181,14.485
			l0.597,1.088l-10.261,7.488c-4.757,3.477-5.803,10.133-2.347,14.912c2.069,2.88,5.333,4.395,8.619,4.395
			c2.197,0,4.373-0.661,6.272-2.069l11.584-8.448l2.368,1.728c1.899,1.387,4.075,2.048,6.272,2.048c3.307,0,6.549-1.515,8.619-4.395
			C276.581,402.331,275.557,395.653,270.779,392.197z"/>
	</g>
</g>
<g>
	<g>
		<path d="M330.853,435.867l-20.011-14.571c-4.736-3.435-11.435-2.432-14.891,2.347c-3.456,4.757-2.432,11.413,2.347,14.891
			l20.011,14.571c1.899,1.387,4.075,2.048,6.272,2.048c3.285,0,6.528-1.515,8.619-4.395
			C336.656,446,335.632,439.344,330.853,435.867z"/>
	</g>
</g>
<g>
	<g>
		<path d="M511.547,253.829c-0.149-0.704-0.405-1.323-0.683-1.984c-0.107-0.277-0.149-0.555-0.277-0.811
			c-0.064-0.128-0.043-0.299-0.107-0.427l-128-224c-0.107-0.171-0.299-0.235-0.384-0.384c-0.128-0.192-0.128-0.405-0.277-0.597
			c-0.171-0.213-0.405-0.32-0.576-0.533c-0.491-0.576-1.045-1.045-1.664-1.515c-0.341-0.256-0.597-0.619-0.96-0.832
			c-0.149-0.085-0.341-0.085-0.491-0.171c-0.043-0.021-0.085-0.021-0.128-0.043c-0.619-0.32-1.259-0.512-1.941-0.704
			c-0.683-0.192-1.323-0.363-2.027-0.405c-0.256-0.064-0.512-0.213-0.811-0.213H138.555c-0.256,0-0.469,0.128-0.725,0.149
			c-0.789,0.043-1.536,0.235-2.304,0.469c-0.597,0.171-1.152,0.341-1.707,0.619c-0.149,0.064-0.32,0.085-0.491,0.171
			c-0.043,0.021-0.107,0.021-0.149,0.043c-0.405,0.256-0.725,0.661-1.109,0.96c-0.555,0.427-1.067,0.875-1.536,1.408
			c-0.192,0.213-0.448,0.341-0.619,0.576c-0.149,0.192-0.171,0.427-0.277,0.619c-0.107,0.149-0.277,0.213-0.384,0.384l-128,224
			c-0.085,0.149-0.043,0.299-0.128,0.448c-0.128,0.235-0.149,0.469-0.235,0.704c-0.299,0.725-0.597,1.408-0.725,2.155
			c-0.085,0.469-0.128,0.939-0.149,1.408c-0.021,0.363-0.021,0.704,0,1.067c0.021,0.533,0.085,1.024,0.192,1.557
			c0.128,0.683,0.405,1.301,0.683,1.963c0.107,0.277,0.149,0.576,0.299,0.832c0.064,0.128,0.043,0.299,0.107,0.427l128,224
			c0.107,0.171,0.299,0.235,0.384,0.384c0.128,0.192,0.128,0.405,0.277,0.597s0.363,0.256,0.512,0.448
			c0.619,0.725,1.323,1.323,2.091,1.856c0.341,0.235,0.597,0.533,0.96,0.725c0.192,0.107,0.384,0.213,0.597,0.32
			c1.344,0.64,2.837,1.045,4.437,1.045h234.667c1.6,0,3.093-0.405,4.459-1.045c0.213-0.085,0.384-0.213,0.597-0.32
			c0.363-0.192,0.619-0.491,0.96-0.725c0.789-0.555,1.493-1.131,2.112-1.877c0.149-0.171,0.363-0.235,0.512-0.427
			c0.128-0.192,0.149-0.405,0.277-0.597c0.107-0.171,0.299-0.235,0.384-0.384l128-224c0.085-0.149,0.043-0.299,0.128-0.448
			c0.107-0.213,0.128-0.448,0.235-0.661c0.277-0.747,0.576-1.451,0.704-2.219c0.085-0.469,0.128-0.939,0.149-1.408
			c0.021-0.363,0.021-0.704,0-1.067C511.717,254.832,511.653,254.341,511.547,253.829z M340.432,42.544l-84.523,61.483
			l-84.544-61.483H340.432z M276.923,177.584l49.067,89.216c-5.141-2.688-11.499-0.853-14.336,4.267l-10.816,19.669
			c-2.837,5.163-0.939,11.648,4.203,14.485c1.643,0.896,3.392,1.323,5.141,1.323c3.755,0,7.424-2.005,9.365-5.525l10.816-19.669
			c0.768-1.387,1.131-2.859,1.237-4.331l23.595,42.859H156.624l78.272-142.315c-0.427,1.152-0.747,2.347-0.747,3.648
			c0,5.888,4.779,10.667,10.667,10.667h22.165c5.888,0,10.667-4.779,10.667-10.667C277.648,179.931,277.328,178.715,276.923,177.584
			z M266.981,170.544h-22.165c-3.797,0-6.976,2.112-8.875,5.099l19.947-36.267l19.925,36.224
			C273.936,172.635,270.757,170.544,266.981,170.544z M127.888,439.707l-88.32-154.56l88.32,51.52V439.707z M134.48,315.824
			L29.456,254.555c1.259-2.987,1.301-6.421-0.469-9.429L138.661,53.189c2.773-0.021,5.248-1.131,7.125-2.901l96.235,70.016
			l-31.573,57.408c-1.472-4.16-5.312-7.168-9.963-7.168H178.32c-5.888,0-10.667,4.779-10.667,10.667s4.779,10.667,10.667,10.667
			h22.165c0.875,0,1.621-0.299,2.432-0.491l-23.296,42.347l-7.104-12.949c-2.88-5.163-9.323-6.997-14.507-4.203
			c-5.141,2.837-7.04,9.323-4.203,14.485l9.728,17.707c1.216,2.219,3.2,3.563,5.376,4.459L134.48,315.824z M362.555,463.216
			c-2.539,0.491-4.928,1.835-6.571,4.117c-0.427,0.576-0.576,1.259-0.853,1.877H156.645c-0.277-0.619-0.427-1.301-0.853-1.877
			c-1.643-2.261-4.032-3.627-6.571-4.117V341.211h65.173l7.552,13.739c1.941,3.52,5.589,5.525,9.344,5.525
			c1.749,0,3.499-0.427,5.163-1.323c5.141-2.837,7.04-9.323,4.203-14.485l-1.899-3.456h34.283l-4.693,8.533
			c-2.837,5.163-0.96,11.648,4.203,14.485c1.621,0.896,3.392,1.323,5.141,1.323c3.755,0,7.403-1.984,9.365-5.525l10.368-18.816
			h65.131V463.216z M383.909,439.685V336.667l88.299-51.499L383.909,439.685z M482.341,254.555l-105.024,61.269l-38.059-69.205
			c1.131,0.384,2.24,0.875,3.392,0.875c3.755,0,7.403-1.984,9.365-5.525l10.837-19.669c2.837-5.163,0.96-11.648-4.203-14.485
			c-5.12-2.816-11.648-0.981-14.507,4.203l-10.837,19.669c-0.448,0.832-0.597,1.728-0.811,2.603l-23.595-42.88
			c0.768,0.171,1.536,0.469,2.389,0.469h22.165c5.888,0,10.667-4.779,10.667-10.667s-4.779-10.667-10.667-10.667h-22.165
			c-4.629,0-8.491,3.008-9.963,7.125l-31.552-57.387l96.235-69.995c1.877,1.749,4.352,2.859,7.104,2.88l109.675,191.957
			C481.04,248.133,481.083,251.568,482.341,254.555z"/>
	</g>
</g>
<g>
</g>
<g>
</g>
<g>
</g>
<g>
</g>
<g>
</g>
<g>
</g>
<g>
</g>
<g>
</g>
<g>
</g>
<g>
</g>
<g>
</g>
<g>
</g>
<g>
</g>
<g>
</g>
<g>
</g>
</svg>
